<?xml version="1.0" encoding="UTF-8"?>
<svg xmlns="http://www.w3.org/2000/svg" xmlns:xlink="http://www.w3.org/1999/xlink" width="309px" height="305px" viewBox="0 0 309 305" version="1.1">
<defs>
<clipPath id="clip1">
  <path d="M 61.800781 106.324219 L 247.199219 106.324219 L 247.199219 198.679688 L 61.800781 198.679688 Z M 61.800781 106.324219 "/>
</clipPath>
</defs>
<g id="surface1">
<path style=" stroke:none;fill-rule:nonzero;fill:rgb(0%,38.823529%,85.882353%);fill-opacity:1;" d="M 284.554688 94.996094 C 276.082031 85.929688 260.046875 81.269531 243.03125 76.351562 C 235.734375 74.234375 228.203125 72.03125 220.835938 69.375 C 213.40625 66.6875 206.105469 63.226562 199.003906 59.910156 C 184.5625 53.101562 169.636719 46.070312 154.480469 46.070312 C 139.359375 46.070312 124.433594 53.101562 109.996094 59.910156 C 102.890625 63.253906 95.558594 66.714844 88.125 69.402344 C 80.792969 72.0625 73.230469 74.234375 65.929688 76.378906 C 48.917969 81.328125 32.882812 85.988281 24.410156 95.023438 C 13.101562 107.121094 13.359375 125.046875 13.621094 144.007812 C 13.652344 146.867188 13.6875 149.699219 13.6875 152.5 C 13.6875 155.300781 13.652344 158.132812 13.589844 160.992188 C 13.328125 179.980469 13.066406 197.878906 24.375 210.003906 C 32.851562 219.042969 48.886719 223.703125 65.867188 228.648438 C 73.164062 230.765625 80.695312 232.96875 88.09375 235.625 C 95.523438 238.3125 102.824219 241.746094 109.894531 245.089844 C 124.367188 251.925781 139.292969 258.960938 154.417969 258.960938 C 169.570312 258.960938 184.5 251.925781 198.9375 245.121094 C 206.042969 241.773438 213.339844 238.3125 220.773438 235.65625 C 228.105469 232.996094 235.601562 230.824219 242.871094 228.707031 C 259.980469 223.730469 276.015625 219.070312 284.488281 210.035156 C 295.800781 197.9375 295.539062 180.007812 295.277344 161.050781 C 295.242188 158.160156 295.179688 155.332031 295.179688 152.527344 C 295.179688 149.726562 295.210938 146.894531 295.277344 144.0625 C 295.636719 125.019531 295.894531 107.089844 284.554688 94.996094 Z M 295.050781 87.445312 C 279.863281 71.203125 250.824219 67.34375 226.019531 58.363281 C 203.824219 50.359375 181.238281 34.144531 154.515625 34.144531 C 127.789062 34.144531 105.203125 50.359375 83.007812 58.363281 C 58.171875 67.34375 29.167969 71.203125 13.980469 87.445312 C -2.511719 105.0625 0.160156 129.910156 0.160156 152.5 C 0.160156 175.0625 -2.511719 199.9375 13.945312 217.554688 C 29.132812 233.796875 58.171875 237.65625 82.976562 246.636719 C 105.171875 254.671875 127.757812 270.855469 154.480469 270.855469 C 181.207031 270.855469 203.792969 254.671875 225.988281 246.636719 C 250.824219 237.65625 279.828125 233.796875 295.015625 217.554688 C 311.476562 199.9375 308.800781 175.089844 308.800781 152.5 C 308.867188 129.910156 311.539062 105.0625 295.050781 87.445312 Z M 299.21875 160.90625 C 299.515625 180.582031 299.773438 199.082031 287.554688 212.148438 C 278.363281 221.957031 261.804688 226.789062 244.273438 231.878906 C 236.972656 233.996094 229.507812 236.171875 222.335938 238.773438 C 215.101562 241.375 207.898438 244.777344 200.925781 248.066406 C 186 255.097656 170.648438 262.332031 154.515625 262.332031 C 138.382812 262.332031 123.03125 255.097656 108.167969 248.09375 C 101.164062 244.777344 93.925781 241.375 86.691406 238.773438 C 79.421875 236.140625 71.960938 233.96875 64.726562 231.878906 C 47.160156 226.789062 30.601562 221.957031 21.441406 212.148438 C 9.253906 199.109375 9.515625 180.582031 9.773438 160.964844 C 9.808594 158.105469 9.871094 155.300781 9.871094 152.5 C 9.871094 149.699219 9.839844 146.894531 9.808594 144.035156 C 9.515625 124.417969 9.253906 105.890625 21.476562 92.851562 C 30.667969 83.042969 47.222656 78.238281 64.757812 73.121094 C 72.023438 71.003906 79.488281 68.828125 86.722656 66.226562 C 93.960938 63.597656 101.195312 60.195312 108.203125 56.90625 C 123.0625 49.902344 138.445312 42.636719 154.546875 42.636719 C 170.648438 42.636719 186.03125 49.871094 200.890625 56.878906 C 207.898438 60.195312 215.136719 63.597656 222.371094 66.199219 C 229.605469 68.828125 237.101562 70.976562 244.304688 73.089844 C 261.839844 78.179688 278.425781 83.011719 287.585938 92.820312 C 299.808594 105.890625 299.546875 124.390625 299.253906 144.007812 C 299.21875 146.894531 299.15625 149.699219 299.15625 152.472656 C 299.15625 155.273438 299.1875 158.074219 299.21875 160.90625 Z M 299.21875 160.90625 "/>
<g clip-path="url(#clip1)" clip-rule="nonzero">
<path style=" stroke:none;fill-rule:nonzero;fill:rgb(100%,100%,100%);fill-opacity:1;" d="M 139.972656 117.652344 C 141.097656 118.308594 141.753906 119.144531 141.9375 120.164062 C 142.125 121.199219 141.84375 122.207031 141.097656 123.191406 C 140.441406 123.933594 139.601562 124.34375 138.570312 124.425781 C 137.542969 124.507812 136.558594 124.34375 135.625 123.933594 C 132.066406 121.878906 128.261719 120.277344 124.199219 119.128906 C 120.121094 117.980469 115.742188 117.40625 111.0625 117.40625 C 105.355469 117.40625 100.050781 118.285156 95.148438 120.039062 C 90.226562 121.8125 85.941406 124.359375 82.292969 127.675781 C 78.640625 131.007812 75.816406 134.933594 73.8125 139.445312 C 71.792969 143.960938 70.78125 148.929688 70.78125 154.347656 C 70.78125 159.929688 71.8125 164.996094 73.871094 169.542969 C 75.929688 174.105469 78.8125 178.03125 82.515625 181.316406 C 86.203125 184.597656 90.476562 187.101562 95.34375 188.824219 C 100.210938 190.550781 105.449219 191.410156 111.0625 191.410156 C 115.648438 191.410156 119.980469 190.835938 124.058594 189.6875 C 128.121094 188.539062 131.925781 186.980469 135.484375 185.007812 C 136.417969 184.515625 137.429688 184.328125 138.515625 184.441406 C 139.582031 184.574219 140.441406 185.050781 141.097656 185.871094 C 141.9375 186.773438 142.246094 187.734375 142.023438 188.753906 C 141.78125 189.785156 141.144531 190.589844 140.113281 191.164062 C 137.777344 192.480469 135.015625 193.710938 131.835938 194.859375 C 128.652344 196.007812 125.285156 196.9375 121.730469 197.644531 C 118.171875 198.332031 114.617188 198.675781 111.0625 198.675781 C 104.324219 198.675781 98.011719 197.609375 92.117188 195.476562 C 86.222656 193.339844 80.980469 190.320312 76.398438 186.414062 C 71.8125 182.519531 68.238281 177.867188 65.675781 172.449219 C 63.089844 167.03125 61.800781 160.996094 61.800781 154.347656 C 61.800781 147.945312 63.0625 142.050781 65.589844 136.664062 C 68.117188 131.296875 71.625 126.640625 76.117188 122.699219 C 80.605469 118.761719 85.847656 115.679688 91.835938 113.464844 C 97.824219 111.25 104.230469 110.140625 111.0625 110.140625 C 116.394531 110.140625 121.542969 110.796875 126.5 112.109375 C 131.460938 113.425781 135.949219 115.269531 139.972656 117.652344 Z M 190.5 134.027344 C 196.394531 134.027344 201.167969 135.136719 204.816406 137.355469 C 208.464844 139.570312 211.148438 142.566406 212.871094 146.34375 C 214.613281 150.121094 215.480469 154.304688 215.480469 158.902344 L 215.480469 193.75 C 215.480469 194.738281 215.0625 195.597656 214.21875 196.335938 C 213.375 197.078125 212.394531 197.445312 211.269531 197.445312 C 209.960938 197.445312 208.933594 197.078125 208.183594 196.335938 C 207.433594 195.597656 207.0625 194.738281 207.0625 193.75 L 207.0625 158.902344 C 207.0625 155.539062 206.472656 152.5 205.292969 149.789062 C 204.132812 147.082031 202.242188 144.921875 199.621094 143.3125 C 197.003906 141.722656 193.492188 140.925781 189.097656 140.925781 C 185.167969 140.925781 181.441406 141.722656 177.925781 143.3125 C 174.425781 144.921875 171.597656 147.082031 169.449219 149.789062 C 167.296875 152.5 166.21875 155.539062 166.21875 158.902344 L 166.21875 193.75 C 166.21875 194.738281 165.796875 195.597656 164.957031 196.335938 C 164.113281 197.078125 163.132812 197.445312 162.007812 197.445312 C 160.699219 197.445312 159.667969 197.078125 158.921875 196.335938 C 158.171875 195.597656 157.796875 194.738281 157.796875 193.75 L 157.796875 110.015625 C 157.796875 109.03125 158.191406 108.171875 158.976562 107.429688 C 159.78125 106.691406 160.792969 106.324219 162.007812 106.324219 C 163.226562 106.324219 164.226562 106.691406 165.011719 107.429688 C 165.816406 108.171875 166.21875 109.03125 166.21875 110.015625 L 166.21875 149.914062 L 162.992188 154.222656 C 163.179688 151.679688 164.085938 149.191406 165.714844 146.761719 C 167.359375 144.347656 169.496094 142.171875 172.113281 140.234375 C 174.734375 138.3125 177.632812 136.796875 180.816406 135.679688 C 183.996094 134.578125 187.226562 134.027344 190.5 134.027344 Z M 245.628906 137.109375 L 245.628906 193.75 C 245.628906 194.738281 245.214844 195.597656 244.394531 196.335938 C 243.550781 197.078125 242.558594 197.445312 241.417969 197.445312 C 240.21875 197.445312 239.21875 197.078125 238.414062 196.335938 C 237.609375 195.597656 237.207031 194.738281 237.207031 193.75 L 237.207031 137.109375 C 237.207031 136.121094 237.609375 135.261719 238.414062 134.523438 C 239.21875 133.78125 240.21875 133.414062 241.417969 133.414062 C 242.652344 133.414062 243.664062 133.78125 244.449219 134.523438 C 245.234375 135.261719 245.628906 136.121094 245.628906 137.109375 Z M 241.417969 125.164062 C 239.453125 125.164062 237.984375 124.769531 237.011719 123.980469 C 236.039062 123.210938 235.550781 122.085938 235.550781 120.605469 L 235.550781 119.375 C 235.550781 117.898438 236.085938 116.765625 237.152344 115.976562 C 238.238281 115.207031 239.714844 114.820312 241.585938 114.820312 C 243.34375 114.820312 244.722656 115.207031 245.710938 115.976562 C 246.703125 116.765625 247.199219 117.898438 247.199219 119.375 L 247.199219 120.605469 C 247.199219 122.085938 246.703125 123.210938 245.710938 123.980469 C 244.722656 124.769531 243.289062 125.164062 241.417969 125.164062 Z M 241.417969 125.164062 "/>
</g>
</g>
</svg>
